<svg width="934" height="362" viewBox="0 0 934 362" fill="none" xmlns="http://www.w3.org/2000/svg">
<path d="M25.575 0H300.7L232.5 361.15L0 327.825L25.575 0Z" fill="#047CFC"/>
<path d="M83.2349 198.972C95.3249 202.382 108.732 204.087 123.457 204.087C130.587 204.087 135.935 203.855 139.5 203.39C143.065 202.925 145.467 202.15 146.707 201.065C147.947 199.98 148.567 198.507 148.567 196.647C148.567 194.012 147.56 192.385 145.545 191.765C143.685 191.145 139.887 190.292 134.152 189.207L115.785 185.72C104.005 183.395 95.4799 179.752 90.2099 174.792C85.0949 169.677 82.5374 162.082 82.5374 152.007C82.5374 138.367 86.5674 129.067 94.6274 124.107C102.842 119.147 115.862 116.667 133.687 116.667C144.382 116.667 153.76 117.287 161.82 118.527C170.035 119.612 176.855 121.007 182.28 122.712L181.815 150.845L181.117 151.542C168.562 147.512 154.845 145.497 139.965 145.497C132.68 145.497 127.565 146.04 124.62 147.125C121.83 148.055 120.435 149.992 120.435 152.937C120.435 154.487 120.822 155.727 121.597 156.657C122.527 157.587 124.542 158.517 127.642 159.447C130.742 160.222 135.625 161.23 142.29 162.47L159.262 165.725C168.717 167.74 175.692 171.072 180.187 175.722C184.682 180.372 186.93 187.735 186.93 197.81C186.93 206.645 185.302 213.697 182.047 218.967C178.792 224.082 173.29 227.725 165.54 229.895C157.945 232.065 147.405 233.15 133.92 233.15C123.69 233.15 114.235 232.685 105.555 231.755C97.0299 230.67 89.3574 229.43 82.5374 228.035V199.437L83.2349 198.972Z" fill="white"/>
<path d="M306.386 227.337C302.046 228.887 296.001 230.282 288.251 231.522C280.656 232.607 271.588 233.15 261.048 233.15C247.718 233.15 236.326 231.445 226.871 228.035C217.571 224.47 210.518 218.502 205.713 210.132C200.908 201.607 198.506 189.827 198.506 174.792C198.506 154.332 203.156 139.53 212.456 130.385C221.911 121.24 236.481 116.667 256.166 116.667C270.271 116.667 281.353 118.682 289.413 122.712C297.628 126.742 303.441 132.477 306.851 139.917C310.416 147.202 312.198 155.882 312.198 165.957C312.198 168.902 312.043 172.08 311.733 175.49C311.578 178.9 311.191 182.232 310.571 185.487L309.641 186.417H233.148C234.233 193.237 237.411 197.732 242.681 199.902C248.106 202.072 256.863 203.157 268.953 203.157C277.013 203.157 283.678 203.002 288.948 202.692C294.373 202.227 299.876 201.607 305.456 200.832L306.386 201.53V227.337ZM279.881 162.005C279.881 158.285 279.261 155.107 278.021 152.472C276.936 149.682 274.688 147.59 271.278 146.195C267.868 144.645 262.831 143.87 256.166 143.87C246.401 143.87 239.968 145.575 236.868 148.985C233.923 152.24 232.451 156.58 232.451 162.005H279.881Z" fill="white"/>
<path d="M369.175 231.057H331.975V74.585H369.175V231.057Z" fill="white"/>
<path d="M496.881 227.337C492.541 228.887 486.496 230.282 478.746 231.522C471.151 232.607 462.084 233.15 451.544 233.15C438.214 233.15 426.821 231.445 417.366 228.035C408.066 224.47 401.014 218.502 396.209 210.132C391.404 201.607 389.001 189.827 389.001 174.792C389.001 154.332 393.651 139.53 402.951 130.385C412.406 121.24 426.976 116.667 446.661 116.667C460.766 116.667 471.849 118.682 479.909 122.712C488.124 126.742 493.936 132.477 497.346 139.917C500.911 147.202 502.694 155.882 502.694 165.957C502.694 168.902 502.539 172.08 502.229 175.49C502.074 178.9 501.686 182.232 501.066 185.487L500.136 186.417H423.644C424.729 193.237 427.906 197.732 433.176 199.902C438.601 202.072 447.359 203.157 459.449 203.157C467.509 203.157 474.174 203.002 479.444 202.692C484.869 202.227 490.371 201.607 495.951 200.832L496.881 201.53V227.337ZM470.376 162.005C470.376 158.285 469.756 155.107 468.516 152.472C467.431 149.682 465.184 147.59 461.774 146.195C458.364 144.645 453.326 143.87 446.661 143.87C436.896 143.87 430.464 145.575 427.364 148.985C424.419 152.24 422.946 156.58 422.946 162.005H470.376Z" fill="white"/>
<path d="M610.588 198.275V228.5C606.713 230.05 600.978 231.212 593.383 231.987C585.788 232.762 577.728 233.15 569.203 233.15C556.958 233.15 546.728 231.445 538.513 228.035C530.453 224.625 524.408 218.735 520.378 210.365C516.503 201.995 514.488 190.37 514.333 175.49C514.333 160.145 516.426 148.21 520.611 139.685C524.951 131.16 531.228 125.192 539.443 121.782C547.658 118.372 557.501 116.667 568.971 116.667C575.791 116.667 582.998 117.132 590.593 118.062C598.188 118.992 604.388 120.232 609.193 121.782L609.426 152.937L608.728 153.402C604.078 152.472 599.118 151.775 593.848 151.31C588.578 150.845 583.386 150.612 578.271 150.612C567.886 150.612 560.678 152.55 556.648 156.425C552.618 160.3 550.603 166.81 550.603 175.955C550.603 182.93 551.456 188.122 553.161 191.532C554.866 194.942 557.733 197.19 561.763 198.275C565.793 199.36 571.296 199.902 578.271 199.902C583.696 199.902 588.888 199.67 593.848 199.205C598.808 198.74 604.078 198.197 609.658 197.577L610.588 198.275Z" fill="white"/>
<path d="M633.78 197.112V148.287H619.83V118.062H637.268L644.243 90.395H670.98V118.062H696.323V148.287H670.98V188.975C670.98 193.315 671.523 196.337 672.608 198.042C673.693 199.592 676.173 200.367 680.048 200.367C682.528 200.367 685.163 200.29 687.953 200.135C690.743 199.825 693.533 199.515 696.323 199.205L697.02 199.67V229.895C689.58 232.065 679.738 233.15 667.493 233.15C655.248 233.15 646.568 230.36 641.453 224.78C636.338 219.2 633.78 209.977 633.78 197.112Z" fill="white"/>
<path d="M709.824 175.257C709.824 154.487 714.242 139.53 723.077 130.385C731.912 121.24 746.869 116.667 767.949 116.667C782.054 116.667 793.369 118.682 801.894 122.712C810.419 126.742 816.542 133.097 820.262 141.777C824.137 150.302 826.074 161.462 826.074 175.257C826.074 188.897 824.137 199.98 820.262 208.505C816.542 217.03 810.419 223.307 801.894 227.337C793.369 231.212 782.054 233.15 767.949 233.15C746.869 233.15 731.912 228.655 723.077 219.665C714.242 210.52 709.824 195.717 709.824 175.257ZM767.949 201.297C776.939 201.297 782.984 199.36 786.084 195.485C789.339 191.455 790.967 184.48 790.967 174.56C790.967 165.105 789.339 158.362 786.084 154.332C782.984 150.147 776.939 148.055 767.949 148.055C759.269 148.055 753.224 150.147 749.814 154.332C746.559 158.362 744.932 165.105 744.932 174.56C744.932 184.48 746.559 191.455 749.814 195.485C753.224 199.36 759.269 201.297 767.949 201.297Z" fill="white"/>
<path d="M882.991 231.057H845.791V117.83H876.016L879.039 141.08H879.736C881.131 132.4 884.464 126.2 889.734 122.48C895.004 118.605 902.831 116.667 913.216 116.667C917.401 116.667 921.199 116.9 924.609 117.365C928.019 117.675 930.886 117.985 933.211 118.295V154.565L932.746 155.03C930.266 154.41 927.399 153.867 924.144 153.402C921.044 152.937 917.479 152.705 913.449 152.705C907.714 152.705 902.521 153.635 897.871 155.495C893.376 157.355 889.811 160.997 887.176 166.422C884.696 171.692 883.456 179.597 883.456 190.137L882.991 231.057Z" fill="white"/>
</svg>
